# Wavefront OBJ file automatically generated by Tiled2Unity

# Vertices (Count = 255)
v 0 -16 0
v -16 -16 0
v -16 0 0
v 0 0 0
v -32 -16 0
v -32 0 0
v -48 -16 0
v -48 0 0
v -64 -16 0
v -64 0 0
v -80 -16 0
v -80 0 0
v -96 -16 0
v -96 0 0
v -112 -16 0
v -112 0 0
v -128 -16 0
v -128 0 0
v -144 -16 0
v -144 0 0
v -160 -16 0
v -160 0 0
v -176 -16 0
v -176 0 0
v -192 -16 0
v -192 0 0
v -208 -16 0
v -208 0 0
v -224 -16 0
v -224 0 0
v -240 -16 0
v -240 0 0
v -256 -16 0
v -256 0 0
v 0 -32 0
v -16 -32 0
v -32 -32 0
v -48 -32 0
v -64 -32 0
v -80 -32 0
v -96 -32 0
v -112 -32 0
v -128 -32 0
v -144 -32 0
v -160 -32 0
v -176 -32 0
v -192 -32 0
v -208 -32 0
v -224 -32 0
v -240 -32 0
v -256 -32 0
v 0 -48 0
v -16 -48 0
v -32 -48 0
v -48 -48 0
v -64 -48 0
v -80 -48 0
v -96 -48 0
v -112 -48 0
v -128 -48 0
v -144 -48 0
v -160 -48 0
v -176 -48 0
v -192 -48 0
v -208 -48 0
v -224 -48 0
v -240 -48 0
v -256 -48 0
v 0 -64 0
v -16 -64 0
v -32 -64 0
v -48 -64 0
v -64 -64 0
v -80 -64 0
v -96 -64 0
v -112 -64 0
v -128 -64 0
v -144 -64 0
v -160 -64 0
v -176 -64 0
v -192 -64 0
v -208 -64 0
v -224 -64 0
v -240 -64 0
v -256 -64 0
v 0 -80 0
v -16 -80 0
v -32 -80 0
v -48 -80 0
v -64 -80 0
v -80 -80 0
v -96 -80 0
v -112 -80 0
v -128 -80 0
v -144 -80 0
v -160 -80 0
v -176 -80 0
v -192 -80 0
v -208 -80 0
v -224 -80 0
v -240 -80 0
v -256 -80 0
v 0 -96 0
v -16 -96 0
v -32 -96 0
v -48 -96 0
v -64 -96 0
v -80 -96 0
v -96 -96 0
v -112 -96 0
v -128 -96 0
v -144 -96 0
v -160 -96 0
v -176 -96 0
v -192 -96 0
v -208 -96 0
v -224 -96 0
v -240 -96 0
v -256 -96 0
v 0 -112 0
v -16 -112 0
v -32 -112 0
v -48 -112 0
v -64 -112 0
v -80 -112 0
v -96 -112 0
v -112 -112 0
v -128 -112 0
v -144 -112 0
v -160 -112 0
v -176 -112 0
v -192 -112 0
v -208 -112 0
v -224 -112 0
v -240 -112 0
v -256 -112 0
v 0 -128 0
v -16 -128 0
v -32 -128 0
v -48 -128 0
v -64 -128 0
v -80 -128 0
v -96 -128 0
v -112 -128 0
v -128 -128 0
v -144 -128 0
v -160 -128 0
v -176 -128 0
v -192 -128 0
v -208 -128 0
v -224 -128 0
v -240 -128 0
v -256 -128 0
v 0 -144 0
v -16 -144 0
v -32 -144 0
v -48 -144 0
v -64 -144 0
v -80 -144 0
v -96 -144 0
v -112 -144 0
v -128 -144 0
v -144 -144 0
v -160 -144 0
v -176 -144 0
v -192 -144 0
v -208 -144 0
v -224 -144 0
v -240 -144 0
v -256 -144 0
v 0 -160 0
v -16 -160 0
v -32 -160 0
v -48 -160 0
v -64 -160 0
v -80 -160 0
v -96 -160 0
v -112 -160 0
v -128 -160 0
v -144 -160 0
v -160 -160 0
v -176 -160 0
v -192 -160 0
v -208 -160 0
v -224 -160 0
v -240 -160 0
v -256 -160 0
v 0 -176 0
v -16 -176 0
v -32 -176 0
v -48 -176 0
v -64 -176 0
v -80 -176 0
v -96 -176 0
v -112 -176 0
v -128 -176 0
v -144 -176 0
v -160 -176 0
v -176 -176 0
v -192 -176 0
v -208 -176 0
v -224 -176 0
v -240 -176 0
v -256 -176 0
v 0 -192 0
v -16 -192 0
v -32 -192 0
v -48 -192 0
v -64 -192 0
v -80 -192 0
v -96 -192 0
v -112 -192 0
v -128 -192 0
v -144 -192 0
v -160 -192 0
v -176 -192 0
v -192 -192 0
v -208 -192 0
v -224 -192 0
v -240 -192 0
v -256 -192 0
v 0 -208 0
v -16 -208 0
v -32 -208 0
v -48 -208 0
v -64 -208 0
v -80 -208 0
v -96 -208 0
v -112 -208 0
v -128 -208 0
v -144 -208 0
v -160 -208 0
v -176 -208 0
v -192 -208 0
v -208 -208 0
v -224 -208 0
v -240 -208 0
v -256 -208 0
v 0 -224 0
v -16 -224 0
v -32 -224 0
v -48 -224 0
v -64 -224 0
v -80 -224 0
v -96 -224 0
v -112 -224 0
v -128 -224 0
v -144 -224 0
v -160 -224 0
v -176 -224 0
v -192 -224 0
v -208 -224 0
v -224 -224 0
v -240 -224 0
v -256 -224 0

# Texture Coorindates (Count = 29)
vt 0.25 0
vt 0.5 0
vt 0.5 0.125
vt 0.25 0.125
vt 0.5 0.875
vt 0.75 0.875
vt 0.75 1
vt 0.5 1
vt 0 0
vt 0 0.125
vt 0 0.875
vt 0.25 0.875
vt 0.25 1
vt 0 1
vt 0.5 0.25
vt 0.25 0.25
vt 0 0.75
vt 0.25 0.75
vt 0.5 0.375
vt 0.25 0.375
vt 0 0.625
vt 0.25 0.625
vt 0 0.5
vt 0.25 0.5
vt 0 0.375
vt 0.5 0.75
vt 0 0.25
vt 0.5 0.625
vt 0.5 0.5

# Normal
vn 0 0 -1

# Groups (Count = 1)
g Ground_00+HeatManBlocks-Tileset
f  1/1/1  2/2/1  3/3/1  4/4/1 
f  2/1/1  5/2/1  6/3/1  3/4/1 
f  5/5/1  7/6/1  8/7/1  6/8/1 
f  7/5/1  9/6/1  10/7/1  8/8/1 
f  9/5/1  11/6/1  12/7/1  10/8/1 
f  11/5/1  13/6/1  14/7/1  12/8/1 
f  13/5/1  15/6/1  16/7/1  14/8/1 
f  15/5/1  17/6/1  18/7/1  16/8/1 
f  17/5/1  19/6/1  20/7/1  18/8/1 
f  19/5/1  21/6/1  22/7/1  20/8/1 
f  21/5/1  23/6/1  24/7/1  22/8/1 
f  23/5/1  25/6/1  26/7/1  24/8/1 
f  25/1/1  27/2/1  28/3/1  26/4/1 
f  27/1/1  29/2/1  30/3/1  28/4/1 
f  29/1/1  31/2/1  32/3/1  30/4/1 
f  31/1/1  33/2/1  34/3/1  32/4/1 
f  35/9/1  36/1/1  2/4/1  1/10/1 
f  36/9/1  37/1/1  5/4/1  2/10/1 
f  37/11/1  38/12/1  7/13/1  5/14/1 
f  38/11/1  39/12/1  9/13/1  7/14/1 
f  39/11/1  40/12/1  11/13/1  9/14/1 
f  40/11/1  41/12/1  13/13/1  11/14/1 
f  41/11/1  42/12/1  15/13/1  13/14/1 
f  42/11/1  43/12/1  17/13/1  15/14/1 
f  43/11/1  44/12/1  19/13/1  17/14/1 
f  44/11/1  45/12/1  21/13/1  19/14/1 
f  45/11/1  46/12/1  23/13/1  21/14/1 
f  46/11/1  47/12/1  25/13/1  23/14/1 
f  47/9/1  48/1/1  27/4/1  25/10/1 
f  48/9/1  49/1/1  29/4/1  27/10/1 
f  49/9/1  50/1/1  31/4/1  29/10/1 
f  50/9/1  51/1/1  33/4/1  31/10/1 
f  52/4/1  53/3/1  36/15/1  35/16/1 
f  53/4/1  54/3/1  37/15/1  36/16/1 
f  54/17/1  55/18/1  38/12/1  37/11/1 
f  55/17/1  56/18/1  39/12/1  38/11/1 
f  56/17/1  57/18/1  40/12/1  39/11/1 
f  57/17/1  58/18/1  41/12/1  40/11/1 
f  58/17/1  59/18/1  42/12/1  41/11/1 
f  59/17/1  60/18/1  43/12/1  42/11/1 
f  60/17/1  61/18/1  44/12/1  43/11/1 
f  61/17/1  62/18/1  45/12/1  44/11/1 
f  62/17/1  63/18/1  46/12/1  45/11/1 
f  63/17/1  64/18/1  47/12/1  46/11/1 
f  64/17/1  65/18/1  48/12/1  47/11/1 
f  65/17/1  66/18/1  49/12/1  48/11/1 
f  66/1/1  67/2/1  50/3/1  49/4/1 
f  67/1/1  68/2/1  51/3/1  50/4/1 
f  69/9/1  70/1/1  53/4/1  52/10/1 
f  70/9/1  71/1/1  54/4/1  53/10/1 
f  71/16/1  72/15/1  55/19/1  54/20/1 
f  72/16/1  73/15/1  56/19/1  55/20/1 
f  73/21/1  74/22/1  57/18/1  56/17/1 
f  74/21/1  75/22/1  58/18/1  57/17/1 
f  75/21/1  76/22/1  59/18/1  58/17/1 
f  76/21/1  77/22/1  60/18/1  59/17/1 
f  77/21/1  78/22/1  61/18/1  60/17/1 
f  78/21/1  79/22/1  62/18/1  61/17/1 
f  79/21/1  80/22/1  63/18/1  62/17/1 
f  80/21/1  81/22/1  64/18/1  63/17/1 
f  81/21/1  82/22/1  65/18/1  64/17/1 
f  82/21/1  83/22/1  66/18/1  65/17/1 
f  83/1/1  84/2/1  67/3/1  66/4/1 
f  84/1/1  85/2/1  68/3/1  67/4/1 
f  86/4/1  87/3/1  70/15/1  69/16/1 
f  87/4/1  88/3/1  71/15/1  70/16/1 
f  88/4/1  89/3/1  72/15/1  71/16/1 
f  89/4/1  90/3/1  73/15/1  72/16/1 
f  90/23/1  91/24/1  74/22/1  73/21/1 
f  91/23/1  92/24/1  75/22/1  74/21/1 
f  92/23/1  93/24/1  76/22/1  75/21/1 
f  93/23/1  94/24/1  77/22/1  76/21/1 
f  94/23/1  95/24/1  78/22/1  77/21/1 
f  95/23/1  96/24/1  79/22/1  78/21/1 
f  96/23/1  97/24/1  80/22/1  79/21/1 
f  97/23/1  98/24/1  81/22/1  80/21/1 
f  98/23/1  99/24/1  82/22/1  81/21/1 
f  99/23/1  100/24/1  83/22/1  82/21/1 
f  100/1/1  101/2/1  84/3/1  83/4/1 
f  101/1/1  102/2/1  85/3/1  84/4/1 
f  103/1/1  104/2/1  87/3/1  86/4/1 
f  104/1/1  105/2/1  88/3/1  87/4/1 
f  105/1/1  106/2/1  89/3/1  88/4/1 
f  106/1/1  107/2/1  90/3/1  89/4/1 
f  107/25/1  108/20/1  91/24/1  90/23/1 
f  108/25/1  109/20/1  92/24/1  91/23/1 
f  109/25/1  110/20/1  93/24/1  92/23/1 
f  110/25/1  111/20/1  94/24/1  93/23/1 
f  111/25/1  112/20/1  95/24/1  94/23/1 
f  112/25/1  113/20/1  96/24/1  95/23/1 
f  113/25/1  114/20/1  97/24/1  96/23/1 
f  114/25/1  115/20/1  98/24/1  97/23/1 
f  115/25/1  116/20/1  99/24/1  98/23/1 
f  116/25/1  117/20/1  100/24/1  99/23/1 
f  117/1/1  118/2/1  101/3/1  100/4/1 
f  118/1/1  119/2/1  102/3/1  101/4/1 
f  120/1/1  121/2/1  104/3/1  103/4/1 
f  121/1/1  122/2/1  105/3/1  104/4/1 
f  122/1/1  123/2/1  106/3/1  105/4/1 
f  123/1/1  124/2/1  107/3/1  106/4/1 
f  124/25/1  125/20/1  108/24/1  107/23/1 
f  125/25/1  126/20/1  109/24/1  108/23/1 
f  126/25/1  127/20/1  110/24/1  109/23/1 
f  127/25/1  128/20/1  111/24/1  110/23/1 
f  128/25/1  129/20/1  112/24/1  111/23/1 
f  129/25/1  130/20/1  113/24/1  112/23/1 
f  130/25/1  131/20/1  114/24/1  113/23/1 
f  131/25/1  132/20/1  115/24/1  114/23/1 
f  132/25/1  133/20/1  116/24/1  115/23/1 
f  133/25/1  134/20/1  117/24/1  116/23/1 
f  134/1/1  135/2/1  118/3/1  117/4/1 
f  135/1/1  136/2/1  119/3/1  118/4/1 
f  137/1/1  138/2/1  121/3/1  120/4/1 
f  138/1/1  139/2/1  122/3/1  121/4/1 
f  139/1/1  140/2/1  123/3/1  122/4/1 
f  140/1/1  141/2/1  124/3/1  123/4/1 
f  141/25/1  142/20/1  125/24/1  124/23/1 
f  142/25/1  143/20/1  126/24/1  125/23/1 
f  143/25/1  144/20/1  127/24/1  126/23/1 
f  144/25/1  145/20/1  128/24/1  127/23/1 
f  145/25/1  146/20/1  129/24/1  128/23/1 
f  146/25/1  147/20/1  130/24/1  129/23/1 
f  147/25/1  148/20/1  131/24/1  130/23/1 
f  148/25/1  149/20/1  132/24/1  131/23/1 
f  149/25/1  150/20/1  133/24/1  132/23/1 
f  150/25/1  151/20/1  134/24/1  133/23/1 
f  151/1/1  152/2/1  135/3/1  134/4/1 
f  152/1/1  153/2/1  136/3/1  135/4/1 
f  154/1/1  155/2/1  138/3/1  137/4/1 
f  155/1/1  156/2/1  139/3/1  138/4/1 
f  156/1/1  157/2/1  140/3/1  139/4/1 
f  157/1/1  158/2/1  141/3/1  140/4/1 
f  158/12/1  159/5/1  142/8/1  141/13/1 
f  159/12/1  160/5/1  143/8/1  142/13/1 
f  160/12/1  161/5/1  144/8/1  143/13/1 
f  161/12/1  162/5/1  145/8/1  144/13/1 
f  162/12/1  163/5/1  146/8/1  145/13/1 
f  163/12/1  164/5/1  147/8/1  146/13/1 
f  164/12/1  165/5/1  148/8/1  147/13/1 
f  165/12/1  166/5/1  149/8/1  148/13/1 
f  166/12/1  167/5/1  150/8/1  149/13/1 
f  167/12/1  168/5/1  151/8/1  150/13/1 
f  168/1/1  169/2/1  152/3/1  151/4/1 
f  169/1/1  170/2/1  153/3/1  152/4/1 
f  171/1/1  172/2/1  155/3/1  154/4/1 
f  172/1/1  173/2/1  156/3/1  155/4/1 
f  173/1/1  174/2/1  157/3/1  156/4/1 
f  174/1/1  175/2/1  158/3/1  157/4/1 
f  175/18/1  176/26/1  159/5/1  158/12/1 
f  176/27/1  177/16/1  160/20/1  159/25/1 
f  177/18/1  178/26/1  161/5/1  160/12/1 
f  178/18/1  179/26/1  162/5/1  161/12/1 
f  179/27/1  180/16/1  163/20/1  162/25/1 
f  180/18/1  181/26/1  164/5/1  163/12/1 
f  181/18/1  182/26/1  165/5/1  164/12/1 
f  182/27/1  183/16/1  166/20/1  165/25/1 
f  183/18/1  184/26/1  167/5/1  166/12/1 
f  184/27/1  185/16/1  168/20/1  167/25/1 
f  185/1/1  186/2/1  169/3/1  168/4/1 
f  186/1/1  187/2/1  170/3/1  169/4/1 
f  188/1/1  189/2/1  172/3/1  171/4/1 
f  189/1/1  190/2/1  173/3/1  172/4/1 
f  190/1/1  191/2/1  174/3/1  173/4/1 
f  191/1/1  192/2/1  175/3/1  174/4/1 
f  192/22/1  193/28/1  176/26/1  175/18/1 
f  193/10/1  194/4/1  177/16/1  176/27/1 
f  194/22/1  195/28/1  178/26/1  177/18/1 
f  195/22/1  196/28/1  179/26/1  178/18/1 
f  196/10/1  197/4/1  180/16/1  179/27/1 
f  197/22/1  198/28/1  181/26/1  180/18/1 
f  198/22/1  199/28/1  182/26/1  181/18/1 
f  199/10/1  200/4/1  183/16/1  182/27/1 
f  200/22/1  201/28/1  184/26/1  183/18/1 
f  201/10/1  202/4/1  185/16/1  184/27/1 
f  202/1/1  203/2/1  186/3/1  185/4/1 
f  203/1/1  204/2/1  187/3/1  186/4/1 
f  205/1/1  206/2/1  189/3/1  188/4/1 
f  206/1/1  207/2/1  190/3/1  189/4/1 
f  207/1/1  208/2/1  191/3/1  190/4/1 
f  208/1/1  209/2/1  192/3/1  191/4/1 
f  209/24/1  210/29/1  193/28/1  192/22/1 
f  210/24/1  211/29/1  194/28/1  193/22/1 
f  211/24/1  212/29/1  195/28/1  194/22/1 
f  212/24/1  213/29/1  196/28/1  195/22/1 
f  213/24/1  214/29/1  197/28/1  196/22/1 
f  214/24/1  215/29/1  198/28/1  197/22/1 
f  215/24/1  216/29/1  199/28/1  198/22/1 
f  216/24/1  217/29/1  200/28/1  199/22/1 
f  217/24/1  218/29/1  201/28/1  200/22/1 
f  218/24/1  219/29/1  202/28/1  201/22/1 
f  219/1/1  220/2/1  203/3/1  202/4/1 
f  220/1/1  221/2/1  204/3/1  203/4/1 
f  222/1/1  223/2/1  206/3/1  205/4/1 
f  223/1/1  224/2/1  207/3/1  206/4/1 
f  224/1/1  225/2/1  208/3/1  207/4/1 
f  225/1/1  226/2/1  209/3/1  208/4/1 
f  226/20/1  227/19/1  210/29/1  209/24/1 
f  227/20/1  228/19/1  211/29/1  210/24/1 
f  228/20/1  229/19/1  212/29/1  211/24/1 
f  229/20/1  230/19/1  213/29/1  212/24/1 
f  230/20/1  231/19/1  214/29/1  213/24/1 
f  231/20/1  232/19/1  215/29/1  214/24/1 
f  232/20/1  233/19/1  216/29/1  215/24/1 
f  233/20/1  234/19/1  217/29/1  216/24/1 
f  234/20/1  235/19/1  218/29/1  217/24/1 
f  235/20/1  236/19/1  219/29/1  218/24/1 
f  236/1/1  237/2/1  220/3/1  219/4/1 
f  237/1/1  238/2/1  221/3/1  220/4/1 
f  239/1/1  240/2/1  223/3/1  222/4/1 
f  240/1/1  241/2/1  224/3/1  223/4/1 
f  241/1/1  242/2/1  225/3/1  224/4/1 
f  242/1/1  243/2/1  226/3/1  225/4/1 
f  243/4/1  244/3/1  227/15/1  226/16/1 
f  244/4/1  245/3/1  228/15/1  227/16/1 
f  245/4/1  246/3/1  229/15/1  228/16/1 
f  246/4/1  247/3/1  230/15/1  229/16/1 
f  247/4/1  248/3/1  231/15/1  230/16/1 
f  248/4/1  249/3/1  232/15/1  231/16/1 
f  249/4/1  250/3/1  233/15/1  232/16/1 
f  250/4/1  251/3/1  234/15/1  233/16/1 
f  251/4/1  252/3/1  235/15/1  234/16/1 
f  252/4/1  253/3/1  236/15/1  235/16/1 
f  253/1/1  254/2/1  237/3/1  236/4/1 
f  254/1/1  255/2/1  238/3/1  237/4/1 
