# Wavefront OBJ file automatically generated by Tiled2Unity

# Vertices (Count = 255)
v 0 -16 0
v -16 -16 0
v -16 0 0
v 0 0 0
v -32 -16 0
v -32 0 0
v -48 -16 0
v -48 0 0
v -64 -16 0
v -64 0 0
v -80 -16 0
v -80 0 0
v -96 -16 0
v -96 0 0
v -112 -16 0
v -112 0 0
v -128 -16 0
v -128 0 0
v -144 -16 0
v -144 0 0
v -160 -16 0
v -160 0 0
v -176 -16 0
v -176 0 0
v -192 -16 0
v -192 0 0
v -208 -16 0
v -208 0 0
v -224 -16 0
v -224 0 0
v -240 -16 0
v -240 0 0
v -256 -16 0
v -256 0 0
v 0 -32 0
v -16 -32 0
v -32 -32 0
v -48 -32 0
v -64 -32 0
v -80 -32 0
v -96 -32 0
v -112 -32 0
v -128 -32 0
v -144 -32 0
v -160 -32 0
v -176 -32 0
v -192 -32 0
v -208 -32 0
v -224 -32 0
v -240 -32 0
v -256 -32 0
v 0 -48 0
v -16 -48 0
v -32 -48 0
v -48 -48 0
v -64 -48 0
v -80 -48 0
v -96 -48 0
v -112 -48 0
v -128 -48 0
v -144 -48 0
v -160 -48 0
v -176 -48 0
v -192 -48 0
v -208 -48 0
v -224 -48 0
v -240 -48 0
v -256 -48 0
v 0 -64 0
v -16 -64 0
v -32 -64 0
v -48 -64 0
v -64 -64 0
v -80 -64 0
v -96 -64 0
v -112 -64 0
v -128 -64 0
v -144 -64 0
v -160 -64 0
v -176 -64 0
v -192 -64 0
v -208 -64 0
v -224 -64 0
v -240 -64 0
v -256 -64 0
v 0 -80 0
v -16 -80 0
v -32 -80 0
v -48 -80 0
v -64 -80 0
v -80 -80 0
v -96 -80 0
v -112 -80 0
v -128 -80 0
v -144 -80 0
v -160 -80 0
v -176 -80 0
v -192 -80 0
v -208 -80 0
v -224 -80 0
v -240 -80 0
v -256 -80 0
v 0 -96 0
v -16 -96 0
v -32 -96 0
v -48 -96 0
v -64 -96 0
v -80 -96 0
v -96 -96 0
v -112 -96 0
v -128 -96 0
v -144 -96 0
v -160 -96 0
v -176 -96 0
v -192 -96 0
v -208 -96 0
v -224 -96 0
v -240 -96 0
v -256 -96 0
v 0 -112 0
v -16 -112 0
v -32 -112 0
v -48 -112 0
v -64 -112 0
v -80 -112 0
v -96 -112 0
v -112 -112 0
v -128 -112 0
v -144 -112 0
v -160 -112 0
v -176 -112 0
v -192 -112 0
v -208 -112 0
v -224 -112 0
v -240 -112 0
v -256 -112 0
v 0 -128 0
v -16 -128 0
v -32 -128 0
v -48 -128 0
v -64 -128 0
v -80 -128 0
v -96 -128 0
v -112 -128 0
v -128 -128 0
v -144 -128 0
v -160 -128 0
v -176 -128 0
v -192 -128 0
v -208 -128 0
v -224 -128 0
v -240 -128 0
v -256 -128 0
v 0 -144 0
v -16 -144 0
v -32 -144 0
v -48 -144 0
v -64 -144 0
v -80 -144 0
v -96 -144 0
v -112 -144 0
v -128 -144 0
v -144 -144 0
v -160 -144 0
v -176 -144 0
v -192 -144 0
v -208 -144 0
v -224 -144 0
v -240 -144 0
v -256 -144 0
v 0 -160 0
v -16 -160 0
v -32 -160 0
v -48 -160 0
v -64 -160 0
v -80 -160 0
v -96 -160 0
v -112 -160 0
v -128 -160 0
v -144 -160 0
v -160 -160 0
v -176 -160 0
v -192 -160 0
v -208 -160 0
v -224 -160 0
v -240 -160 0
v -256 -160 0
v 0 -176 0
v -16 -176 0
v -32 -176 0
v -48 -176 0
v -64 -176 0
v -80 -176 0
v -96 -176 0
v -112 -176 0
v -128 -176 0
v -144 -176 0
v -160 -176 0
v -176 -176 0
v -192 -176 0
v -208 -176 0
v -224 -176 0
v -240 -176 0
v -256 -176 0
v 0 -192 0
v -16 -192 0
v -32 -192 0
v -48 -192 0
v -64 -192 0
v -80 -192 0
v -96 -192 0
v -112 -192 0
v -128 -192 0
v -144 -192 0
v -160 -192 0
v -176 -192 0
v -192 -192 0
v -208 -192 0
v -224 -192 0
v -240 -192 0
v -256 -192 0
v 0 -208 0
v -16 -208 0
v -32 -208 0
v -48 -208 0
v -64 -208 0
v -80 -208 0
v -96 -208 0
v -112 -208 0
v -128 -208 0
v -144 -208 0
v -160 -208 0
v -176 -208 0
v -192 -208 0
v -208 -208 0
v -224 -208 0
v -240 -208 0
v -256 -208 0
v 0 -224 0
v -16 -224 0
v -32 -224 0
v -48 -224 0
v -64 -224 0
v -80 -224 0
v -96 -224 0
v -112 -224 0
v -128 -224 0
v -144 -224 0
v -160 -224 0
v -176 -224 0
v -192 -224 0
v -208 -224 0
v -224 -224 0
v -240 -224 0
v -256 -224 0

# Texture Coorindates (Count = 41)
vt 0 0.5
vt 0.125 0.5
vt 0.125 0.625
vt 0 0.625
vt 0.25 0.5
vt 0.25 0.625
vt 0.375 0.5
vt 0.375 0.625
vt 0.75 0.5
vt 0.875 0.5
vt 0.875 0.625
vt 0.75 0.625
vt 0.625 0.5
vt 0.625 0.625
vt 1 0.5
vt 1 0.625
vt 0.25 0.75
vt 0.375 0.75
vt 0.375 0.875
vt 0.25 0.875
vt 0.375 1
vt 0.25 1
vt 0.875 0.75
vt 1 0.75
vt 1 0.875
vt 0.875 0.875
vt 0.5 0.75
vt 0.625 0.75
vt 0.625 0.875
vt 0.5 0.875
vt 0.5 0.5
vt 0.5 0.625
vt 0.5 1
vt 0.625 1
vt 0.75 0.875
vt 0.75 1
vt 0 0.375
vt 0.125 0.375
vt 0.25 0.375
vt 0.375 0.375
vt 0.5 0.375

# Normal
vn 0 0 -1

# Groups (Count = 3)
g Background_00+Strider-RedDragonTiles
f  1/1/1  2/2/1  3/3/1  4/4/1 
f  2/1/1  5/2/1  6/3/1  3/4/1 
f  5/1/1  7/2/1  8/3/1  6/4/1 
f  7/1/1  9/2/1  10/3/1  8/4/1 
f  9/1/1  11/2/1  12/3/1  10/4/1 
f  11/1/1  13/2/1  14/3/1  12/4/1 
f  13/1/1  15/2/1  16/3/1  14/4/1 
f  15/1/1  17/2/1  18/3/1  16/4/1 
f  17/1/1  19/2/1  20/3/1  18/4/1 
f  19/1/1  21/2/1  22/3/1  20/4/1 
f  21/1/1  23/2/1  24/3/1  22/4/1 
f  23/1/1  25/2/1  26/3/1  24/4/1 
f  25/1/1  27/2/1  28/3/1  26/4/1 
f  27/1/1  29/2/1  30/3/1  28/4/1 
f  29/1/1  31/2/1  32/3/1  30/4/1 
f  31/1/1  33/2/1  34/3/1  32/4/1 
f  35/1/1  36/2/1  2/3/1  1/4/1 
f  36/2/1  37/5/1  5/6/1  2/3/1 
f  37/5/1  38/7/1  7/8/1  5/6/1 
f  38/1/1  39/2/1  9/3/1  7/4/1 
f  39/1/1  40/2/1  11/3/1  9/4/1 
f  40/1/1  41/2/1  13/3/1  11/4/1 
f  41/1/1  42/2/1  15/3/1  13/4/1 
f  42/2/1  43/5/1  17/6/1  15/3/1 
f  43/5/1  44/7/1  19/8/1  17/6/1 
f  44/1/1  45/2/1  21/3/1  19/4/1 
f  45/1/1  46/2/1  23/3/1  21/4/1 
f  46/1/1  47/2/1  25/3/1  23/4/1 
f  47/1/1  48/2/1  27/3/1  25/4/1 
f  48/1/1  49/2/1  29/3/1  27/4/1 
f  49/1/1  50/2/1  31/3/1  29/4/1 
f  50/1/1  51/2/1  33/3/1  31/4/1 
f  52/1/1  53/2/1  36/3/1  35/4/1 
f  53/2/1  54/5/1  37/6/1  36/3/1 
f  54/5/1  55/7/1  38/8/1  37/6/1 
f  55/9/1  56/10/1  39/11/1  38/12/1 
f  56/13/1  57/9/1  40/12/1  39/14/1 
f  57/9/1  58/10/1  41/11/1  40/12/1 
f  58/13/1  59/9/1  42/12/1  41/14/1 
f  59/2/1  60/5/1  43/6/1  42/3/1 
f  60/5/1  61/7/1  44/8/1  43/6/1 
f  61/9/1  62/10/1  45/11/1  44/12/1 
f  62/13/1  63/9/1  46/12/1  45/14/1 
f  63/9/1  64/10/1  47/11/1  46/12/1 
f  64/13/1  65/9/1  48/12/1  47/14/1 
f  65/9/1  66/10/1  49/11/1  48/12/1 
f  66/13/1  67/9/1  50/12/1  49/14/1 
f  67/1/1  68/2/1  51/3/1  50/4/1 
f  69/1/1  70/2/1  53/3/1  52/4/1 
f  70/2/1  71/5/1  54/6/1  53/3/1 
f  71/5/1  72/7/1  55/8/1  54/6/1 
f  72/9/1  73/10/1  56/11/1  55/12/1 
f  73/10/1  74/15/1  57/16/1  56/11/1 
f  74/9/1  75/10/1  58/11/1  57/12/1 
f  75/10/1  76/15/1  59/16/1  58/11/1 
f  76/2/1  77/5/1  60/6/1  59/3/1 
f  77/5/1  78/7/1  61/8/1  60/6/1 
f  78/9/1  79/10/1  62/11/1  61/12/1 
f  79/10/1  80/15/1  63/16/1  62/11/1 
f  80/9/1  81/10/1  64/11/1  63/12/1 
f  81/10/1  82/15/1  65/16/1  64/11/1 
f  82/9/1  83/10/1  66/11/1  65/12/1 
f  83/10/1  84/15/1  67/16/1  66/11/1 
f  84/1/1  85/2/1  68/3/1  67/4/1 
f  86/17/1  87/18/1  70/19/1  69/20/1 
f  87/2/1  88/5/1  71/6/1  70/3/1 
f  88/5/1  89/7/1  72/8/1  71/6/1 
f  89/17/1  90/18/1  73/19/1  72/20/1 
f  90/17/1  91/18/1  74/19/1  73/20/1 
f  91/17/1  92/18/1  75/19/1  74/20/1 
f  92/17/1  93/18/1  76/19/1  75/20/1 
f  93/2/1  94/5/1  77/6/1  76/3/1 
f  94/5/1  95/7/1  78/8/1  77/6/1 
f  95/17/1  96/18/1  79/19/1  78/20/1 
f  96/17/1  97/18/1  80/19/1  79/20/1 
f  97/17/1  98/18/1  81/19/1  80/20/1 
f  98/17/1  99/18/1  82/19/1  81/20/1 
f  99/17/1  100/18/1  83/19/1  82/20/1 
f  100/17/1  101/18/1  84/19/1  83/20/1 
f  101/17/1  102/18/1  85/19/1  84/20/1 
f  103/20/1  104/19/1  87/21/1  86/22/1 
f  104/1/1  105/2/1  88/3/1  87/4/1 
f  105/1/1  106/2/1  89/3/1  88/4/1 
f  106/1/1  107/2/1  90/3/1  89/4/1 
f  107/1/1  108/2/1  91/3/1  90/4/1 
f  108/20/1  109/19/1  92/21/1  91/22/1 
f  109/20/1  110/19/1  93/21/1  92/22/1 
f  110/2/1  111/5/1  94/6/1  93/3/1 
f  111/5/1  112/7/1  95/8/1  94/6/1 
f  112/20/1  113/19/1  96/21/1  95/22/1 
f  113/20/1  114/19/1  97/21/1  96/22/1 
f  114/20/1  115/19/1  98/21/1  97/22/1 
f  115/20/1  116/19/1  99/21/1  98/22/1 
f  116/20/1  117/19/1  100/21/1  99/22/1 
f  117/20/1  118/19/1  101/21/1  100/22/1 
f  118/20/1  119/19/1  102/21/1  101/22/1 
f  120/20/1  121/19/1  104/21/1  103/22/1 
f  121/2/1  122/5/1  105/6/1  104/3/1 
f  122/5/1  123/7/1  106/8/1  105/6/1 
f  123/20/1  124/19/1  107/21/1  106/22/1 
f  124/20/1  125/19/1  108/21/1  107/22/1 
f  125/20/1  126/19/1  109/21/1  108/22/1 
f  126/20/1  127/19/1  110/21/1  109/22/1 
f  127/1/1  128/2/1  111/3/1  110/4/1 
f  128/1/1  129/2/1  112/3/1  111/4/1 
f  129/1/1  130/2/1  113/3/1  112/4/1 
f  130/1/1  131/2/1  114/3/1  113/4/1 
f  131/1/1  132/2/1  115/3/1  114/4/1 
f  132/20/1  133/19/1  116/21/1  115/22/1 
f  133/20/1  134/19/1  117/21/1  116/22/1 
f  134/20/1  135/19/1  118/21/1  117/22/1 
f  135/20/1  136/19/1  119/21/1  118/22/1 
f  137/20/1  138/19/1  121/21/1  120/22/1 
f  138/2/1  139/5/1  122/6/1  121/3/1 
f  139/5/1  140/7/1  123/8/1  122/6/1 
f  140/20/1  141/19/1  124/21/1  123/22/1 
f  141/20/1  142/19/1  125/21/1  124/22/1 
f  142/20/1  143/19/1  126/21/1  125/22/1 
f  143/20/1  144/19/1  127/21/1  126/22/1 
f  144/2/1  145/5/1  128/6/1  127/3/1 
f  145/5/1  146/7/1  129/8/1  128/6/1 
f  146/20/1  147/19/1  130/21/1  129/22/1 
f  147/20/1  148/19/1  131/21/1  130/22/1 
f  148/20/1  149/19/1  132/21/1  131/22/1 
f  149/20/1  150/19/1  133/21/1  132/22/1 
f  150/20/1  151/19/1  134/21/1  133/22/1 
f  151/20/1  152/19/1  135/21/1  134/22/1 
f  152/20/1  153/19/1  136/21/1  135/22/1 
f  154/17/1  155/18/1  138/19/1  137/20/1 
f  155/2/1  156/5/1  139/6/1  138/3/1 
f  156/5/1  157/7/1  140/8/1  139/6/1 
f  157/17/1  158/18/1  141/19/1  140/20/1 
f  158/17/1  159/18/1  142/19/1  141/20/1 
f  159/17/1  160/18/1  143/19/1  142/20/1 
f  160/17/1  161/18/1  144/19/1  143/20/1 
f  161/2/1  162/5/1  145/6/1  144/3/1 
f  162/5/1  163/7/1  146/8/1  145/6/1 
f  163/17/1  164/18/1  147/19/1  146/20/1 
f  164/17/1  165/18/1  148/19/1  147/20/1 
f  165/17/1  166/18/1  149/19/1  148/20/1 
f  166/17/1  167/18/1  150/19/1  149/20/1 
f  167/17/1  168/18/1  151/19/1  150/20/1 
f  168/17/1  169/18/1  152/19/1  151/20/1 
f  169/17/1  170/18/1  153/19/1  152/20/1 
f  171/20/1  172/19/1  155/21/1  154/22/1 
f  172/2/1  173/5/1  156/6/1  155/3/1 
f  173/5/1  174/7/1  157/8/1  156/6/1 
f  174/20/1  175/19/1  158/21/1  157/22/1 
f  175/20/1  176/19/1  159/21/1  158/22/1 
f  176/1/1  177/2/1  160/3/1  159/4/1 
f  177/1/1  178/2/1  161/3/1  160/4/1 
f  178/1/1  179/2/1  162/3/1  161/4/1 
f  179/1/1  180/2/1  163/3/1  162/4/1 
f  180/1/1  181/2/1  164/3/1  163/4/1 
f  181/20/1  182/19/1  165/21/1  164/22/1 
f  182/20/1  183/19/1  166/21/1  165/22/1 
f  183/20/1  184/19/1  167/21/1  166/22/1 
f  184/20/1  185/19/1  168/21/1  167/22/1 
f  185/20/1  186/19/1  169/21/1  168/22/1 
f  186/20/1  187/19/1  170/21/1  169/22/1 
f  188/20/1  189/19/1  172/21/1  171/22/1 
f  189/2/1  190/5/1  173/6/1  172/3/1 
f  190/5/1  191/7/1  174/8/1  173/6/1 
f  191/20/1  192/19/1  175/21/1  174/22/1 
f  192/20/1  193/19/1  176/21/1  175/22/1 
f  193/20/1  194/19/1  177/21/1  176/22/1 
f  194/20/1  195/19/1  178/21/1  177/22/1 
f  195/2/1  196/5/1  179/6/1  178/3/1 
f  196/5/1  197/7/1  180/8/1  179/6/1 
f  197/20/1  198/19/1  181/21/1  180/22/1 
f  198/20/1  199/19/1  182/21/1  181/22/1 
f  199/20/1  200/19/1  183/21/1  182/22/1 
f  200/20/1  201/19/1  184/21/1  183/22/1 
f  201/20/1  202/19/1  185/21/1  184/22/1 
f  202/20/1  203/19/1  186/21/1  185/22/1 
f  203/20/1  204/19/1  187/21/1  186/22/1 
f  205/20/1  206/19/1  189/21/1  188/22/1 
f  206/2/1  207/5/1  190/6/1  189/3/1 
f  207/5/1  208/7/1  191/8/1  190/6/1 
f  208/20/1  209/19/1  192/21/1  191/22/1 
f  209/20/1  210/19/1  193/21/1  192/22/1 
f  210/20/1  211/19/1  194/21/1  193/22/1 
f  211/20/1  212/19/1  195/21/1  194/22/1 
f  212/2/1  213/5/1  196/6/1  195/3/1 
f  213/5/1  214/7/1  197/8/1  196/6/1 
f  214/20/1  215/19/1  198/21/1  197/22/1 
f  215/20/1  216/19/1  199/21/1  198/22/1 
f  216/20/1  217/19/1  200/21/1  199/22/1 
f  217/20/1  218/19/1  201/21/1  200/22/1 
f  218/20/1  219/19/1  202/21/1  201/22/1 
f  219/20/1  220/19/1  203/21/1  202/22/1 
f  220/20/1  221/19/1  204/21/1  203/22/1 
f  222/20/1  223/19/1  206/21/1  205/22/1 
f  223/2/1  224/5/1  207/6/1  206/3/1 
f  224/5/1  225/7/1  208/8/1  207/6/1 
f  225/20/1  226/19/1  209/21/1  208/22/1 
f  226/20/1  227/19/1  210/21/1  209/22/1 
f  227/20/1  228/19/1  211/21/1  210/22/1 
f  228/20/1  229/19/1  212/21/1  211/22/1 
f  229/2/1  230/5/1  213/6/1  212/3/1 
f  230/5/1  231/7/1  214/8/1  213/6/1 
f  231/20/1  232/19/1  215/21/1  214/22/1 
f  232/20/1  233/19/1  216/21/1  215/22/1 
f  233/20/1  234/19/1  217/21/1  216/22/1 
f  234/20/1  235/19/1  218/21/1  217/22/1 
f  235/20/1  236/19/1  219/21/1  218/22/1 
f  236/20/1  237/19/1  220/21/1  219/22/1 
f  237/20/1  238/19/1  221/21/1  220/22/1 
f  239/20/1  240/19/1  223/21/1  222/22/1 
f  240/2/1  241/5/1  224/6/1  223/3/1 
f  241/5/1  242/7/1  225/8/1  224/6/1 
f  242/20/1  243/19/1  226/21/1  225/22/1 
f  243/20/1  244/19/1  227/21/1  226/22/1 
f  244/20/1  245/19/1  228/21/1  227/22/1 
f  245/20/1  246/19/1  229/21/1  228/22/1 
f  246/2/1  247/5/1  230/6/1  229/3/1 
f  247/5/1  248/7/1  231/8/1  230/6/1 
f  248/20/1  249/19/1  232/21/1  231/22/1 
f  249/20/1  250/19/1  233/21/1  232/22/1 
f  250/20/1  251/19/1  234/21/1  233/22/1 
f  251/20/1  252/19/1  235/21/1  234/22/1 
f  252/20/1  253/19/1  236/21/1  235/22/1 
f  253/20/1  254/19/1  237/21/1  236/22/1 
f  254/20/1  255/19/1  238/21/1  237/22/1 
g Terrain_01+Strider-RedDragonTiles
f  1/23/1  2/24/1  3/25/1  4/26/1 
f  31/27/1  33/28/1  34/29/1  32/30/1 
f  35/23/1  36/24/1  2/25/1  1/26/1 
f  50/27/1  51/28/1  33/29/1  31/30/1 
f  52/23/1  53/24/1  36/25/1  35/26/1 
f  67/27/1  68/28/1  51/29/1  50/30/1 
f  69/23/1  70/24/1  53/25/1  52/26/1 
f  84/27/1  85/28/1  68/29/1  67/30/1 
f  86/23/1  87/24/1  70/25/1  69/26/1 
f  87/7/1  88/31/1  71/32/1  70/8/1 
f  88/7/1  89/31/1  72/32/1  71/8/1 
f  89/7/1  90/31/1  73/32/1  72/8/1 
f  90/7/1  91/31/1  74/32/1  73/8/1 
f  101/27/1  102/28/1  85/29/1  84/30/1 
f  103/23/1  104/24/1  87/25/1  86/26/1 
f  110/7/1  111/31/1  94/32/1  93/8/1 
f  111/7/1  112/31/1  95/32/1  94/8/1 
f  112/7/1  113/31/1  96/32/1  95/8/1 
f  113/7/1  114/31/1  97/32/1  96/8/1 
f  114/7/1  115/31/1  98/32/1  97/8/1 
f  117/19/1  118/30/1  101/33/1  100/21/1 
f  118/27/1  119/28/1  102/29/1  101/30/1 
f  120/23/1  121/24/1  104/25/1  103/26/1 
f  133/19/1  134/30/1  117/33/1  116/21/1 
f  134/18/1  135/27/1  118/30/1  117/19/1 
f  135/27/1  136/28/1  119/29/1  118/30/1 
f  137/23/1  138/24/1  121/25/1  120/26/1 
f  150/18/1  151/27/1  134/30/1  133/19/1 
f  151/18/1  152/27/1  135/30/1  134/19/1 
f  152/27/1  153/28/1  136/29/1  135/30/1 
f  154/23/1  155/24/1  138/25/1  137/26/1 
f  159/7/1  160/31/1  143/32/1  142/8/1 
f  160/7/1  161/31/1  144/32/1  143/8/1 
f  161/7/1  162/31/1  145/32/1  144/8/1 
f  162/7/1  163/31/1  146/32/1  145/8/1 
f  163/7/1  164/31/1  147/32/1  146/8/1 
f  167/18/1  168/27/1  151/30/1  150/19/1 
f  168/18/1  169/27/1  152/30/1  151/19/1 
f  169/27/1  170/28/1  153/29/1  152/30/1 
f  171/23/1  172/24/1  155/25/1  154/26/1 
f  184/18/1  185/27/1  168/30/1  167/19/1 
f  185/18/1  186/27/1  169/30/1  168/19/1 
f  186/27/1  187/28/1  170/29/1  169/30/1 
f  188/23/1  189/24/1  172/25/1  171/26/1 
f  189/30/1  190/29/1  173/34/1  172/33/1 
f  190/30/1  191/29/1  174/34/1  173/33/1 
f  191/29/1  192/35/1  175/36/1  174/34/1 
f  200/19/1  201/30/1  184/33/1  183/21/1 
f  201/18/1  202/27/1  185/30/1  184/19/1 
f  202/18/1  203/27/1  186/30/1  185/19/1 
f  203/27/1  204/28/1  187/29/1  186/30/1 
f  205/23/1  206/24/1  189/25/1  188/26/1 
f  206/18/1  207/27/1  190/30/1  189/19/1 
f  207/18/1  208/27/1  191/30/1  190/19/1 
f  208/18/1  209/27/1  192/30/1  191/19/1 
f  209/29/1  210/35/1  193/36/1  192/34/1 
f  216/19/1  217/30/1  200/33/1  199/21/1 
f  217/18/1  218/27/1  201/30/1  200/19/1 
f  218/18/1  219/27/1  202/30/1  201/19/1 
f  219/18/1  220/27/1  203/30/1  202/19/1 
f  220/27/1  221/28/1  204/29/1  203/30/1 
f  222/23/1  223/24/1  206/25/1  205/26/1 
f  223/18/1  224/27/1  207/30/1  206/19/1 
f  224/18/1  225/27/1  208/30/1  207/19/1 
f  225/18/1  226/27/1  209/30/1  208/19/1 
f  226/18/1  227/27/1  210/30/1  209/19/1 
f  227/29/1  228/35/1  211/36/1  210/34/1 
f  232/19/1  233/30/1  216/33/1  215/21/1 
f  233/18/1  234/27/1  217/30/1  216/19/1 
f  234/18/1  235/27/1  218/30/1  217/19/1 
f  235/18/1  236/27/1  219/30/1  218/19/1 
f  236/18/1  237/27/1  220/30/1  219/19/1 
f  237/27/1  238/28/1  221/29/1  220/30/1 
f  239/8/1  240/32/1  223/27/1  222/18/1 
f  240/30/1  241/29/1  224/34/1  223/33/1 
f  241/30/1  242/29/1  225/34/1  224/33/1 
f  242/30/1  243/29/1  226/34/1  225/33/1 
f  243/30/1  244/29/1  227/34/1  226/33/1 
f  244/30/1  245/29/1  228/34/1  227/33/1 
f  245/30/1  246/29/1  229/34/1  228/33/1 
f  246/30/1  247/29/1  230/34/1  229/33/1 
f  247/30/1  248/29/1  231/34/1  230/33/1 
f  248/30/1  249/29/1  232/34/1  231/33/1 
f  249/30/1  250/29/1  233/34/1  232/33/1 
f  250/30/1  251/29/1  234/34/1  233/33/1 
f  251/30/1  252/29/1  235/34/1  234/33/1 
f  252/30/1  253/29/1  236/34/1  235/33/1 
f  253/30/1  254/29/1  237/34/1  236/33/1 
f  254/11/1  255/16/1  238/24/1  237/23/1 
g GuardRails_02+Strider-RedDragonTiles
f  100/37/1  101/38/1  84/2/1  83/1/1 
f  116/37/1  117/38/1  100/2/1  99/1/1 
f  117/38/1  118/39/1  101/5/1  100/2/1 
f  133/38/1  134/39/1  117/5/1  116/2/1 
f  174/40/1  175/41/1  158/31/1  157/7/1 
f  183/37/1  184/38/1  167/2/1  166/1/1 
f  191/39/1  192/40/1  175/7/1  174/5/1 
f  192/40/1  193/41/1  176/31/1  175/7/1 
f  199/37/1  200/38/1  183/2/1  182/1/1 
f  200/38/1  201/39/1  184/5/1  183/2/1 
f  209/39/1  210/40/1  193/7/1  192/5/1 
f  210/40/1  211/41/1  194/31/1  193/7/1 
f  215/37/1  216/38/1  199/2/1  198/1/1 
f  216/38/1  217/39/1  200/5/1  199/2/1 
f  227/39/1  228/40/1  211/7/1  210/5/1 
f  228/40/1  229/41/1  212/31/1  211/7/1 
f  231/37/1  232/38/1  215/2/1  214/1/1 
f  232/38/1  233/39/1  216/5/1  215/2/1 
